solid bodyExport
facet normal -0.9918275568630448 0.12649073462392119 0.016679073756793047
  outer loop
    vertex -208.43903793853264 88.86672516284638 6.640007378973375
    vertex -208.92394045507402 85.5238062380346 3.1571156694324265
    vertex -208.92394045507402 85.06455198606847 6.640007378973375
  endloop
endfacet
facet normal -0.9918275568630448 0.12649073462392119 0.016679073756793047
  outer loop
    vertex -208.92394045507402 85.5238062380346 3.1571156694324265
    vertex -208.43903793853264 88.86672516284638 6.640007378973375
    vertex -208.92394045507402 85.85086952488204 0.6767336035519009
  endloop
endfacet
facet normal 0.9331660325013656 0.21199648025226384 0.2902734024093698
  outer loop
    vertex -122.59410374075013 16.697768538965907 24.24342864071601
    vertex -123.69764003652774 18.5798385059659 26.416519158220137
    vertex -122.96115530903091 16.6269247305544 25.475159452974566
  endloop
endfacet
facet normal 0.9331660325013656 0.21199648025226384 0.2902734024093698
  outer loop
    vertex -123.69764003652774 18.5798385059659 26.416519158220137
    vertex -122.59410374075013 16.697768538965907 24.24342864071601
    vertex -123.24766423910971 19.574610911666426 24.24342864071601
  endloop
endfacet
facet normal 0.9331660325013656 0.21199648025226384 0.2902734024093698
  outer loop
    vertex -123.69764003652774 18.5798385059659 26.416519158220137
    vertex -123.24766423910971 19.574610911666426 24.24342864071601
    vertex -125.21069176905269 21.959105428011643 28.81265942849168
  endloop
endfacet
facet normal 0.9331660325013656 0.21199648025226384 0.2902734024093698
  outer loop
    vertex -125.21069176905269 21.959105428011643 28.81265942849168
    vertex -123.24766423910971 19.574610911666426 24.24342864071601
    vertex -124.87575926100048 22.046812169503948 27.67186885851673
  endloop
endfacet
facet normal -3.533899088354304e-05 -0.9999991585622672 0.0012967751977443927
  outer loop
    vertex -119.64860909585548 -0.4785174095697186 18.4432670878119
    vertex -121.24564688920748 -0.47882773011663976 18.112877619420747
    vertex -119.59403554991202 -0.47882773011663976 18.112877619420747
  endloop
endfacet
facet normal -3.533899088354304e-05 -0.9999991585622672 0.0012967751977443927
  outer loop
    vertex -121.24564688920748 -0.47882773011663976 18.112877619420747
    vertex -119.64860909585548 -0.4785174095697186 18.4432670878119
    vertex -120.42558567005554 -0.4743761841458877 21.565215534355254
  endloop
endfacet
facet normal -3.533899088354304e-05 -0.9999991585622672 0.0012967751977443927
  outer loop
    vertex -120.42558567005554 -0.4743761841458877 21.565215534355254
    vertex -119.64860909585548 -0.4785174095697186 18.4432670878119
    vertex -120.31328321332317 -0.47473788540498457 21.292539558453726
  endloop
endfacet
facet normal -3.533899088354304e-05 -0.9999991585622672 0.0012967751977443927
  outer loop
    vertex -120.42558567005554 -0.4743761841458877 21.565215534355254
    vertex -120.31328321332317 -0.47473788540498457 21.292539558453726
    vertex -120.37689266643842 -0.4743761841458877 21.565215534355254
  endloop
endfacet
facet normal 0.9999999999999958 -9.386050446932741e-08 1.7826718489564036e-15
  outer loop
    vertex -202.83122142961793 6.8098579736352445 0.676708447856005
    vertex -202.83121855130057 37.47576367188458 3.1570905137367564
    vertex -202.83122142961793 6.809857973635242 3.157090513736508
  endloop
endfacet
facet normal 0.9999999999999958 -9.386050446932741e-08 1.7826718489564036e-15
  outer loop
    vertex -202.83121855130057 37.47576367188458 3.1570905137367564
    vertex -202.83122142961793 6.8098579736352445 0.676708447856005
    vertex -202.83121855130057 37.47576367188458 0.6767084478560614
  endloop
endfacet
facet normal -9.3979706023642e-08 -0.9999999525017571 0.00030821498137549667
  outer loop
    vertex -137.79052287428343 -0.4807384352021201 0.6767336035519009
    vertex -208.92394453279664 -0.4799672676348594 3.1570881572635856
    vertex -208.92394288920033 -0.4807317585835653 0.6767060913830826
  endloop
endfacet
facet normal -9.3979706023642e-08 -0.9999999525017571 0.00030821498137549667
  outer loop
    vertex -208.92394453279664 -0.4799672676348594 3.1570881572635856
    vertex -137.79052287428343 -0.4807384352021201 0.6767336035519009
    vertex -137.79052451787976 -0.4799739442534154 3.1571156694324265
  endloop
endfacet
facet normal 9.386050245911604e-08 0.9999999999999958 1.860636039364642e-15
  outer loop
    vertex -202.83122142961793 6.809857973635242 3.157090513736508
    vertex -137.79052287428343 6.809851868882599 0.6767336035518896
    vertex -202.83122142961793 6.8098579736352445 0.676708447856005
  endloop
endfacet
facet normal 9.386050245911604e-08 0.9999999999999958 1.860636039364642e-15
  outer loop
    vertex -137.79052287428343 6.809851868882599 0.6767336035518896
    vertex -202.83122142961793 6.809857973635242 3.157090513736508
    vertex -137.79052314928273 6.80985186888262 3.1571156694324154
  endloop
endfacet
facet normal -0.9999999999999415 8.578131268050624e-08 -3.313324140310635e-07
  outer loop
    vertex -208.92394453279664 -0.4799672676348594 3.1570881572635856
    vertex -208.92394045507402 37.47576424375053 0.6767336035519009
    vertex -208.92394288920033 -0.4807317585835653 0.6767060913830826
  endloop
endfacet
facet normal -0.9999999999999415 8.578131268050624e-08 -3.313324140310635e-07
  outer loop
    vertex -208.92394045507402 37.47576424375053 0.6767336035519009
    vertex -208.92394453279664 -0.4799672676348594 3.1570881572635856
    vertex -208.92394045507402 37.47576424375053 3.1571156694324265
  endloop
endfacet
facet normal 0.9992278895721161 0.03448513448286845 0.018825519938465537
  outer loop
    vertex -137.0157792626056 6.203120686173969 56.092840688605534
    vertex -137.0188366791483 5.019289075290997 58.423700517670014
    vertex -136.99093010995065 4.359855894144729 58.15043421071511
  endloop
endfacet
facet normal 0.9992278895721161 0.03448513448286845 0.018825519938465537
  outer loop
    vertex -137.0188366791483 5.019289075290997 58.423700517670014
    vertex -137.0157792626056 6.203120686173969 56.092840688605534
    vertex -137.06595282847945 7.726022461007538 55.96627599469171
  endloop
endfacet
facet normal 0.23033366853233214 -0.16964837757121354 -0.958209699975894
  outer loop
    vertex -186.9708870388519 2.872939292708654 84.17227463743299
    vertex -187.36191628913866 0.8257766366950371 84.4407238312802
    vertex -187.89635939939217 5.081876785371213 83.55872406939999
  endloop
endfacet
facet normal 0.7411562914416527 -0.2137423496759369 0.6363973284132056
  outer loop
    vertex -129.62915950616153 26.752641449900324 33.73357405179375
    vertex -136.4086790078218 -0.3805434005193822 32.516052987641444
    vertex -128.50223149969642 25.33140658688155 31.94379931484378
  endloop
endfacet
facet normal 0.9984835069017696 -0.043881666555860475 -0.0332428305868259
  outer loop
    vertex -136.98036180806392 4.097020859563543 56.26787356617636
    vertex -136.96201334757097 3.35520386614313 57.79821259663505
    vertex -136.9698054807745 3.1939739056222187 57.77699668004788
  endloop
endfacet
facet normal 0.9984835069017696 -0.043881666555860475 -0.0332428305868259
  outer loop
    vertex -136.96201334757097 3.35520386614313 57.79821259663505
    vertex -136.98036180806392 4.097020859563543 56.26787356617636
    vertex -136.97049832275243 4.33653405188158 56.24796820236685
  endloop
endfacet
facet normal 0.9998959824128418 0.01440352556734476 0.0007502038983755276
  outer loop
    vertex -137.16077204813192 15.955477412691804 69.86142784634679
    vertex -137.12404718495216 13.363424417374272 70.57721935634358
    vertex -137.12248323534513 13.285046084931993 69.98179330724939
  endloop
endfacet
facet normal 0.9998959824128418 0.01440352556734476 0.0007502038983755276
  outer loop
    vertex -137.12404718495216 13.363424417374272 70.57721935634358
    vertex -137.16077204813192 15.955477412691804 69.86142784634679
    vertex -137.14169175922035 14.153411564895572 79.13875078180516
  endloop
endfacet
facet normal 0.9998959824128418 0.01440352556734476 0.0007502038983755276
  outer loop
    vertex -137.14169175922035 14.153411564895572 79.13875078180516
    vertex -137.16077204813192 15.955477412691804 69.86142784634679
    vertex -137.15201248476174 14.960543590668657 77.39863097993222
  endloop
endfacet
facet normal 0.9998959824128418 0.01440352556734476 0.0007502038983755276
  outer loop
    vertex -137.15201248476174 14.960543590668657 77.39863097993222
    vertex -137.16077204813192 15.955477412691804 69.86142784634679
    vertex -137.1591616920556 15.551329225714813 75.5736633715805
  endloop
endfacet
facet normal 0.9998959824128418 0.01440352556734476 0.0007502038983755276
  outer loop
    vertex -137.1591616920556 15.551329225714813 75.5736633715805
    vertex -137.16077204813192 15.955477412691804 69.86142784634679
    vertex -137.16303443335457 15.917095953068829 73.69063781351969
  endloop
endfacet
facet normal 0.9998959824128418 0.01440352556734476 0.0007502038983755276
  outer loop
    vertex -137.16303443335457 15.917095953068829 73.69063781351969
    vertex -137.16077204813192 15.955477412691804 69.86142784634679
    vertex -137.16357385823326 16.052474451000204 71.7771964319787
  endloop
endfacet
facet normal 0.9998959824128418 0.01440352556734476 0.0007502038983755276
  outer loop
    vertex -136.9442172356985 0.17538616894143674 84.6570015288843
    vertex -136.97159593969747 1.897066538976561 87.36205542542653
    vertex -136.94691042986057 0.17536783194258956 87.4402145515227
  endloop
endfacet
facet normal 0.9998959824128418 0.01440352556734476 0.0007502038983755276
  outer loop
    vertex -136.97159593969747 1.897066538976561 87.36205542542653
    vertex -136.9442172356985 0.17538616894143674 84.6570015288843
    vertex -136.99283825773904 3.5815358915284605 84.20850859422072
  endloop
endfacet
facet normal 0.9998959824128418 0.01440352556734476 0.0007502038983755276
  outer loop
    vertex -136.97159593969747 1.897066538976561 87.36205542542653
    vertex -136.99283825773904 3.5815358915284605 84.20850859422072
    vertex -136.99854503053265 3.7885417323142505 87.04396599025775
  endloop
endfacet
facet normal 0.9998959824128418 0.01440352556734476 0.0007502038983755276
  outer loop
    vertex -136.99854503053265 3.7885417323142505 87.04396599025775
    vertex -136.99283825773904 3.5815358915284605 84.20850859422072
    vertex -137.03761323727642 6.764557130783641 82.88990728390051
  endloop
endfacet
facet normal 0.9998959824128418 0.01440352556734476 0.0007502038983755276
  outer loop
    vertex -136.99854503053265 3.7885417323142505 87.04396599025775
    vertex -137.03761323727642 6.764557130783641 82.88990728390051
    vertex -137.02457544919739 5.62767143458216 86.49943875970371
  endloop
endfacet
facet normal 0.9998959824128418 0.01440352556734476 0.0007502038983755276
  outer loop
    vertex -137.02457544919739 5.62767143458216 86.49943875970371
    vertex -137.03761323727642 6.764557130783641 82.88990728390051
    vertex -137.04930507867007 7.387457894653654 85.7364671942768
  endloop
endfacet
facet normal 0.9998959824128418 0.01440352556734476 0.0007502038983755276
  outer loop
    vertex -137.04930507867007 7.387457894653654 85.7364671942768
    vertex -137.03761323727642 6.764557130783641 82.88990728390051
    vertex -137.0753531134549 9.497884263840147 80.79232846312566
  endloop
endfacet
facet normal 0.9998959824128418 0.01440352556734476 0.0007502038983755276
  outer loop
    vertex -137.04930507867007 7.387457894653654 85.7364671942768
    vertex -137.0753531134549 9.497884263840147 80.79232846312566
    vertex -137.07237089703762 9.042068091167295 84.76625143740065
  endloop
endfacet
facet normal 0.9998959824128418 0.01440352556734476 0.0007502038983755276
  outer loop
    vertex -137.07237089703762 9.042068091167295 84.76625143740065
    vertex -137.0753531134549 9.497884263840147 80.79232846312566
    vertex -137.09343430652623 10.567212951828836 83.6030339014027
  endloop
endfacet
facet normal 0.9998959824128418 0.01440352556734476 0.0007502038983755276
  outer loop
    vertex -137.09343430652623 10.567212951828836 83.6030339014027
    vertex -137.0753531134549 9.497884263840147 80.79232846312566
    vertex -137.10348597608112 11.595245563616896 78.058718662119
  endloop
endfacet
facet normal 0.9998959824128418 0.01440352556734476 0.0007502038983755276
  outer loop
    vertex -137.09343430652623 10.567212951828836 83.6030339014027
    vertex -137.10348597608112 11.595245563616896 78.058718662119
    vertex -137.11218610399078 11.940503908105269 82.26389019411218
  endloop
endfacet
facet normal 0.9998959824128418 0.01440352556734476 0.0007502038983755276
  outer loop
    vertex -137.11218610399078 11.940503908105269 82.26389019411218
    vertex -137.10348597608112 11.595245563616896 78.058718662119
    vertex -137.12009461705858 12.913709323587458 73.99336910943515
  endloop
endfacet
facet normal 0.9998959824128418 0.01440352556734476 0.0007502038983755276
  outer loop
    vertex -137.11218610399078 11.940503908105269 82.26389019411218
    vertex -137.12009461705858 12.913709323587458 73.99336910943515
    vertex -137.128351019906 13.141781551219633 80.76847845518479
  endloop
endfacet
facet normal 0.9998959824128418 0.01440352556734476 0.0007502038983755276
  outer loop
    vertex -137.128351019906 13.141781551219633 80.76847845518479
    vertex -137.12009461705858 12.913709323587458 73.99336910943515
    vertex -137.12404718495216 13.363424417374272 70.57721935634358
  endloop
endfacet
facet normal 0.9998959824128418 0.01440352556734476 0.0007502038983755276
  outer loop
    vertex -137.128351019906 13.141781551219633 80.76847845518479
    vertex -137.12404718495216 13.363424417374272 70.57721935634358
    vertex -137.14169175922035 14.153411564895572 79.13875078180516
  endloop
endfacet
facet normal -0.4661984004294256 -0.1898462166330985 -0.8640702896565439
  outer loop
    vertex -168.40309808342417 12.080621728333215 74.91996363149947
    vertex -173.7633017167573 11.078048498767316 78.03227188530548
    vertex -171.9639246924638 20.824813204895747 74.91996363149947
  endloop
endfacet
facet normal -0.3231319250191127 -0.23321315872119786 -0.9171681316055001
  outer loop
    vertex -171.9639246924638 20.824813204895747 74.91996363149947
    vertex -173.7633017167573 11.078048498767316 78.03227188530548
    vertex -179.93138395979517 8.891639899697747 80.76132826903718
  endloop
endfacet
facet normal -0.2778064187861446 -0.26632183978182367 -0.9229822703261651
  outer loop
    vertex -171.9639246924638 20.824813204895747 74.91996363149947
    vertex -179.93138395979517 8.891639899697747 80.76132826903718
    vertex -184.210029653848 6.096280950253153 82.85573510428776
  endloop
endfacet
facet normal -0.049290616424447944 -0.441684707012347 -0.8958153016799362
  outer loop
    vertex -171.9639246924638 20.824813204895747 74.91996363149947
    vertex -184.210029653848 6.096280950253153 82.85573510428776
    vertex -187.89635939939217 5.081876785371213 83.55872406939999
  endloop
endfacet
facet normal -0.35679481211750186 -0.1452946752550677 -0.9228146722872156
  outer loop
    vertex -171.9639246924638 20.824813204895747 74.91996363149947
    vertex -187.89635939939217 5.081876785371213 83.55872406939999
    vertex -190.1015988791938 10.497202601604014 83.55872406939999
  endloop
endfacet
facet normal -8.424729381963356e-11 -0.9512247406200147 -0.3084987728215235
  outer loop
    vertex -137.10348597608112 11.595245563616896 78.058718662119
    vertex -138.60860545784686 12.913709323719283 73.99336910943515
    vertex -137.12009461705858 12.913709323587458 73.99336910943515
  endloop
endfacet
facet normal -8.424729381963356e-11 -0.9512247406200147 -0.3084987728215235
  outer loop
    vertex -138.60860545784686 12.913709323719283 73.99336910943515
    vertex -137.10348597608112 11.595245563616896 78.058718662119
    vertex -138.5919968168694 11.595245563748728 78.058718662119
  endloop
endfacet
facet normal -0.0033813531200103486 -0.9994920295368157 0.031689893396082434
  outer loop
    vertex -185.38848919978125 -0.10470194284023061 88.5995520244552
    vertex -195.1403393063235 -0.19852983532295695 84.59970646220972
    vertex -188.2605238019559 -0.22254501935847526 84.57635834294273
  endloop
endfacet
facet normal -0.0001397888956569618 -0.9997169193027284 0.023792051591382028
  outer loop
    vertex -191.1914179380355 -0.07170485627330253 89.95196001689641
    vertex -195.1403393063235 -0.19852983532295695 84.59970646220972
    vertex -185.38848919978125 -0.10470194284023061 88.5995520244552
  endloop
endfacet
facet normal 0.007961697840480739 -0.9998642494537273 0.0144254647007224
  outer loop
    vertex -181.40674928525846 -0.1273433597570131 87.39228524707904
    vertex -188.2605238019559 -0.22254501935847526 84.57635834294273
    vertex -138.43272807648677 0.1753861690732701 84.6570015288843
  endloop
endfacet
facet normal 0.006812367976200779 -0.9999701583057522 -0.003643369391900642
  outer loop
    vertex -139.95436787329555 0.1548911264455449 87.43697240429232
    vertex -181.40674928525846 -0.1273433597570131 87.39228524707904
    vertex -138.43272807648677 0.1753861690732701 84.6570015288843
  endloop
endfacet
facet normal 0.002647123209262429 -0.13054396700693832 -0.9914389872386532
  outer loop
    vertex -138.43272807648677 0.1753861690732701 84.6570015288843
    vertex -188.2605238019559 -0.22254501935847526 84.57635834294273
    vertex -187.36191628913866 0.8257766366950371 84.4407238312802
  endloop
endfacet
facet normal 0.0062861270746945854 -0.38268390265169855 -0.9238579518831163
  outer loop
    vertex -184.24958208943008 6.03568197304353 82.88056870655365
    vertex -138.48134909852726 3.58153589166029 84.20850859422072
    vertex -186.9708870388519 2.872939292708654 84.17227463743299
  endloop
endfacet
facet normal 0.0062861270746945854 -0.38268390265169855 -0.9238579518831163
  outer loop
    vertex -138.48134909852726 3.58153589166029 84.20850859422072
    vertex -184.24958208943008 6.03568197304353 82.88056870655365
    vertex -184.210029653848 6.096280950253153 82.85573510428776
  endloop
endfacet
facet normal 0.0062861270746945854 -0.38268390265169855 -0.9238579518831163
  outer loop
    vertex -138.48134909852726 3.58153589166029 84.20850859422072
    vertex -184.210029653848 6.096280950253153 82.85573510428776
    vertex -138.5261240780648 6.764557130915475 82.88990728390051
  endloop
endfacet
facet normal -3.389640073416298e-11 -0.38272077756308803 -0.9238640627394841
  outer loop
    vertex -137.03761323727642 6.764557130783641 82.88990728390051
    vertex -138.48134909852726 3.58153589166029 84.20850859422072
    vertex -138.5261240780648 6.764557130915475 82.88990728390051
  endloop
endfacet
facet normal -3.389640073416298e-11 -0.38272077756308803 -0.9238640627394841
  outer loop
    vertex -138.48134909852726 3.58153589166029 84.20850859422072
    vertex -137.03761323727642 6.764557130783641 82.88990728390051
    vertex -136.99283825773904 3.5815358915284605 84.20850859422072
  endloop
endfacet
facet normal -1.156195180310786e-11 -0.13054473718982976 -0.9914424197057732
  outer loop
    vertex -136.99283825773904 3.5815358915284605 84.20850859422072
    vertex -138.43272807648677 0.1753861690732701 84.6570015288843
    vertex -138.48134909852726 3.58153589166029 84.20850859422072
  endloop
endfacet
facet normal -1.156195180310786e-11 -0.13054473718982976 -0.9914424197057732
  outer loop
    vertex -138.43272807648677 0.1753861690732701 84.6570015288843
    vertex -136.99283825773904 3.5815358915284605 84.20850859422072
    vertex -136.9442172356985 0.17538616894143674 84.6570015288843
  endloop
endfacet
facet normal 0.3507575560955936 0.032533877148043115 0.9359010010036118
  outer loop
    vertex -179.88606331282315 3.688361235097061 86.8596597630223
    vertex -179.91515729293508 3.6846991180216526 86.87069092573833
    vertex -179.91199984224923 3.650657688480475 86.87069092573897
  endloop
endfacet
facet normal -0.09672500081102564 -0.5658172048403994 0.8188376914411699
  outer loop
    vertex -197.99233333271144 62.79021070532666 65.22664741047544
    vertex -198.22270504787554 62.82959215952336 65.22664741047546
    vertex -198.2951503346636 60.813946080895775 63.82527750216031
  endloop
endfacet
facet normal 0.9964613222676545 0.05950696135912255 0.059361222817608285
  outer loop
    vertex -137.0458932042134 9.080738553809793 55.76379306663468
    vertex -137.05475521455708 6.120555556425294 58.88000491346075
    vertex -137.00089213678845 5.482501734786505 58.61545797793556
  endloop
endfacet
facet normal 0.9964613222676545 0.05950696135912255 0.059361222817608285
  outer loop
    vertex -137.05475521455708 6.120555556425294 58.88000491346075
    vertex -137.0458932042134 9.080738553809793 55.76379306663468
    vertex -137.1600623590545 11.3275286665123 55.427976106042834
  endloop
endfacet
facet normal -2.1958452992514924e-14 -0.38249357931487926 0.9239581493676498
  outer loop
    vertex -137.0188366791483 5.019289075290997 58.423700517670014
    vertex -138.4894029867503 5.482501734786505 58.61545797793551
    vertex -138.50734752910998 5.019289075290997 58.42370051766997
  endloop
endfacet
facet normal -2.1958452992514924e-14 -0.38249357931487926 0.9239581493676498
  outer loop
    vertex -138.4894029867503 5.482501734786505 58.61545797793551
    vertex -137.0188366791483 5.019289075290997 58.423700517670014
    vertex -137.00089213678845 5.482501734786505 58.61545797793556
  endloop
endfacet
13678848 5.4825017347865055 58.61545797793557
  endloop
endfacet
